name C:\Users\r0593348\3dpredictsim\Results\batch_windlass\Pog_s1_tmt_bCst_d05_k1500_WL20_ig24_act_TTC.mot
datacolumns 128
datarows 4
range 1.17923296 1.21460995
endheader
time	pelvis_tilt	pelvis_list	pelvis_rotation	pelvis_tx	pelvis_ty	pelvis_tz	hip_flexion_l	hip_adduction_l	hip_rotation_l	hip_flexion_r	hip_adduction_r	hip_rotation_r	knee_angle_l	knee_angle_r	ankle_angle_l	ankle_angle_r	subtalar_angle_l	subtalar_angle_r	tmt_angle_l	tmt_angle_r	mtp_angle_l	mtp_angle_r	lumbar_extension	lumbar_bending	lumbar_rotation	arm_flex_l	arm_add_l	arm_rot_l	arm_flex_r	arm_add_r	arm_rot_r	elbow_flex_l	elbow_flex_r	pro_sup_l	pro_sup_r	glut_med1_l/activation	glut_med2_l/activation	glut_med3_l/activation	glut_min1_l/activation	glut_min2_l/activation	glut_min3_l/activation	semimem_l/activation	semiten_l/activation	bifemlh_l/activation	bifemsh_l/activation	sar_l/activation	add_long_l/activation	add_brev_l/activation	add_mag1_l/activation	add_mag2_l/activation	add_mag3_l/activation	tfl_l/activation	pect_l/activation	grac_l/activation	glut_max1_l/activation	glut_max2_l/activation	glut_max3_l/activation	iliacus_l/activation	psoas_l/activation	quad_fem_l/activation	gem_l/activation	peri_l/activation	rect_fem_l/activation	vas_med_l/activation	vas_int_l/activation	vas_lat_l/activation	med_gas_l/activation	lat_gas_l/activation	soleus_l/activation	tib_post_l/activation	flex_dig_l/activation	flex_hal_l/activation	tib_ant_l/activation	per_brev_l/activation	per_long_l/activation	per_tert_l/activation	ext_dig_l/activation	ext_hal_l/activation	ercspn_l/activation	intobl_l/activation	extobl_l/activation	glut_med1_r/activation	glut_med2_r/activation	glut_med3_r/activation	glut_min1_r/activation	glut_min2_r/activation	glut_min3_r/activation	semimem_r/activation	semiten_r/activation	bifemlh_r/activation	bifemsh_r/activation	sar_r/activation	add_long_r/activation	add_brev_r/activation	add_mag1_r/activation	add_mag2_r/activation	add_mag3_r/activation	tfl_r/activation	pect_r/activation	grac_r/activation	glut_max1_r/activation	glut_max2_r/activation	glut_max3_r/activation	iliacus_r/activation	psoas_r/activation	quad_fem_r/activation	gem_r/activation	peri_r/activation	rect_fem_r/activation	vas_med_r/activation	vas_int_r/activation	vas_lat_r/activation	med_gas_r/activation	lat_gas_r/activation	soleus_r/activation	tib_post_r/activation	flex_dig_r/activation	flex_hal_r/activation	tib_ant_r/activation	per_brev_r/activation	per_long_r/activation	per_tert_r/activation	ext_dig_r/activation	ext_hal_r/activation	ercspn_r/activation	intobl_r/activation	extobl_r/activation	
          1.17923296	         -2.93014639	         -0.87574165	          8.48939802	          1.47404120	          0.85973749	         -0.00283564	        -14.91889454	         -2.61826890	          6.49888826	         33.21339302	         -0.56396102	         -3.01206231	        -17.10327903	        -22.25128070	         -8.00281420	          2.90754176	         17.75850005	          5.62815504	         -7.37898081	         -0.15567817	         34.46648118	          0.67800182	          0.10653598	         -1.80281665	         -2.29040041	          3.02054771	        -13.47819720	         15.81900651	        -12.42203662	        -13.71633437	         11.78462285	         43.69950170	         18.02271760	         86.51662706	         86.51662706	          0.18299787	          0.10248877	          0.06040864	          0.24725306	          0.17001734	          0.11958094	          0.05000047	          0.05000004	          0.05000003	          0.05911148	          0.12263167	          0.05000004	          0.05000003	          0.05000004	          0.05000009	          0.05000005	          0.21008044	          0.05000035	          0.05000013	          0.05000075	          0.05000034	          0.05000009	          0.34513918	          0.36177448	          0.05000002	          0.05000019	          0.05982680	          0.18994696	          0.10668497	          0.10649006	          0.09489277	          0.15298379	          0.22696757	          0.05000000	          0.15370564	          0.17141455	          0.18192587	          0.11283145	          0.46419663	          0.37871368	          0.24943427	          0.34941351	          0.05000008	          0.05000000	          0.05000000	          0.05000005	          0.05000026	          0.05000070	          0.05000881	          0.05000054	          0.05000065	          0.05000080	          0.07548352	          0.05000039	          0.08565400	          0.05000007	          0.06952004	          0.06820184	          0.10963626	          0.10879725	          0.08102192	          0.08138926	          0.06362272	          0.05000187	          0.05000072	          0.05000418	          0.05281774	          0.08280962	          0.08855021	          0.08284166	          0.19238441	          0.05001670	          0.05000073	          0.05557641	          0.05701474	          0.06469341	          0.05173655	          0.08844978	          0.08565465	          0.06509459	          0.07158518	          0.05000018	          0.05000028	          0.43501518	          0.23087431	          0.15879408	          0.06420538	          0.55150705	          0.05000011	          0.05000002	          0.14673521	          0.12340200	
          1.19102529	         -2.92686517	         -0.82351364	          8.66874849	          1.49280739	          0.85874269	         -0.00249331	        -15.39378366	         -2.90654794	          6.21957776	         32.78144000	         -0.38784467	         -2.83754466	        -17.70521034	        -21.60146636	        -10.85683998	          2.44309633	         18.14785436	          5.27471669	         -7.78087007	         -0.17837952	         35.62596794	          0.80794606	          0.32930978	         -1.63023340	         -2.39630236	          2.67242362	        -13.51695346	         16.15644533	        -13.80401912	        -13.69575700	         11.75987892	         44.75141150	         18.09495847	         86.51662706	         86.51662706	          0.15293937	          0.08565439	          0.05048620	          0.20664026	          0.14209097	          0.09993908	          0.05000078	          0.05000010	          0.05000014	          0.05000003	          0.10248871	          0.11469330	          0.08022025	          0.10246879	          0.05000345	          0.05982695	          0.17557345	          0.05000139	          0.05000023	          0.05000200	          0.05000175	          0.05000241	          0.28844797	          0.30235082	          0.05000021	          0.05000105	          0.05000051	          0.15874701	          0.08927320	          0.09462672	          0.08099753	          0.12785527	          0.18968676	          0.05000000	          0.12845855	          0.14325867	          0.15204344	          0.31738149	          0.49144324	          0.36374741	          0.57978696	          0.50408954	          0.21683654	          0.05000000	          0.05221273	          0.05000005	          0.07290195	          0.05000087	          0.05001124	          0.05000094	          0.05000077	          0.05000085	          0.06480229	          0.06592230	          0.07158524	          0.05982721	          0.05810106	          0.06285725	          0.10389371	          0.11767049	          0.08529660	          0.09901594	          0.05317252	          0.05000345	          0.05983296	          0.07158223	          0.05982703	          0.10021551	          0.07400532	          0.06923443	          0.20485842	          0.05000135	          0.06131614	          0.05000005	          0.10785562	          0.11803076	          0.09683946	          0.07392137	          0.07158536	          0.06223925	          0.05982693	          0.05982725	          0.05982717	          0.47327746	          0.28278572	          0.16758943	          0.09298433	          0.53741522	          0.13377707	          0.05000001	          0.12263306	          0.10313247	
          1.20281762	         -2.91583780	         -0.76637473	          8.81183065	          1.51180529	          0.85719504	         -0.00214520	        -15.72326589	         -3.15863873	          5.93112653	         32.28563089	         -0.17798117	         -2.62758581	        -18.68654327	        -21.47078709	        -13.31659696	          1.97450350	         18.49170349	          4.85737288	         -7.89269581	         -0.21728914	         35.55377394	          0.97649257	          0.56013409	         -1.44568107	         -2.49126982	          2.27072485	        -13.58012344	         16.45003749	        -15.15928002	        -13.67959582	         11.78507889	         45.77187490	         18.10099723	         86.51662706	         86.51662706	          0.12781817	          0.07158517	          0.05000007	          0.17269836	          0.11875169	          0.08352354	          0.05000120	          0.05000044	          0.05000028	          0.05982691	          0.08565438	          0.11684246	          0.27606337	          0.14505312	          0.05496349	          0.05000016	          0.14673445	          0.08565436	          0.07462614	          0.05000050	          0.05000030	          0.05000016	          0.24106863	          0.25268785	          0.07902293	          0.05000287	          0.07158524	          0.13267185	          0.07460954	          0.07908371	          0.06769320	          0.10685426	          0.15852956	          0.05000000	          0.10735845	          0.11972758	          0.12706938	          0.44237791	          0.42650332	          0.32272329	          0.75195411	          0.61584984	          0.29079831	          0.05448371	          0.05000003	          0.06517188	          0.12223838	          0.05000086	          0.05000007	          0.05000068	          0.05000081	          0.05000071	          0.05415815	          0.05509418	          0.05982695	          0.05000024	          0.05000103	          0.05253332	          0.08682868	          0.14673391	          0.18740149	          0.13867137	          0.05000009	          0.05000131	          0.05000509	          0.05982649	          0.05000017	          0.15948853	          0.06184953	          0.05786228	          0.20434233	          0.05982679	          0.13751288	          0.06702813	          0.23696960	          0.23017455	          0.19549986	          0.06177934	          0.05982703	          0.05201608	          0.05000000	          0.05000029	          0.05000021	          0.65428311	          0.23633648	          0.14006185	          0.49219663	          0.67647087	          0.36408942	          0.05000000	          0.10248983	          0.08619233	
          1.21460995	         -2.89769178	         -0.71759534	          8.91422176	          1.53090840	          0.85507115	         -0.00179604	        -15.88443095	         -3.38139978	          5.64971441	         31.67101081	          0.07156183	         -2.35239220	        -20.12730703	        -22.04850245	        -15.05018420	          1.57433994	         18.76785797	          4.41827075	         -7.57570273	         -0.29692901	         33.60969962	          1.23740836	          0.79078610	         -1.23685877	         -2.57203438	          1.82514339	        -13.66488657	         16.69160764	        -16.46130225	        -13.67840540	         11.89070940	         46.78132422	         18.02628228	         86.51662706	         86.51662706	          0.10682327	          0.05982699	          0.05982702	          0.14433163	          0.09924603	          0.06980434	          0.05000057	          0.05000004	          0.05000016	          0.05000003	          0.07158516	          0.09765042	          0.30720217	          0.27396495	          0.15383395	          0.18240245	          0.12263242	          0.07158524	          0.06236846	          0.05982652	          0.05982706	          0.10920764	          0.20147164	          0.21118233	          0.07158558	          0.05982754	          0.05982698	          0.11087968	          0.07158546	          0.07158545	          0.07158532	          0.08930280	          0.13249011	          0.05000003	          0.08972417	          0.10006161	          0.10619747	          0.52258533	          0.38691469	          0.26971408	          0.62844112	          0.73464715	          0.24303292	          0.09233186	          0.05007769	          0.05446701	          0.25277071	          0.05000009	          0.30799467	          0.05000027	          0.05000015	          0.05000018	          0.05000001	          0.05000001	          0.05000003	          0.05000001	          0.05000012	          0.07158518	          0.07802438	          0.12263216	          0.15662134	          0.14791486	          0.05000024	          0.05982903	          0.05000038	          0.05000005	          0.14802407	          0.16459323	          0.05982690	          0.05368927	          0.17077792	          0.05000016	          0.26026573	          0.05983480	          0.37129503	          0.34898811	          0.29823351	          0.05163171	          0.05000009	          0.05000000	          0.08307933	          0.05000008	          0.05000006	          0.61404897	          0.19751678	          0.11705584	          0.41135038	          0.56535641	          0.30428553	          0.05000017	          0.08565525	          0.07203471	
